<svg width="14" height="22" viewBox="0 0 14 22" fill="none" xmlns="http://www.w3.org/2000/svg">
<path fill-rule="evenodd" clip-rule="evenodd" d="M7.0119 0.500488C4.3748 0.500488 2.237 2.66483 2.237 5.33467V7.32668H0V21.5005H14V7.32668H11.7868V5.33467C11.7868 2.66483 9.64901 0.500488 7.0119 0.500488ZM10.7619 7.32668V5.33467C10.7619 3.23787 9.083 1.53807 7.0119 1.53807C4.94081 1.53807 3.26186 3.23787 3.26186 5.33467V7.32668H10.7619ZM1.0531 20.4343H12.9469V8.39285H1.0531V20.4343ZM7.87205 15.2995C8.47535 14.9904 8.88894 14.3568 8.88894 13.6255C8.88894 12.5899 8.05977 11.7505 7.03694 11.7505C6.01411 11.7505 5.18494 12.5899 5.18494 13.6255C5.18494 14.3541 5.59541 14.9856 6.19501 15.296V17.715H7.87205V15.2995Z" fill="#0B0820"/>
</svg>
