<svg width="16" height="16" viewBox="0 0 16 16" fill="none" xmlns="http://www.w3.org/2000/svg">
<g clip-path="url(#clip0_45_383)">
<path d="M10.4843 0.839216C7.90543 0.839216 5.80792 2.93673 5.80792 5.51564C5.80792 6.63317 6.20335 7.64754 6.85668 8.4556L5.8595 9.45278L5.17179 8.78227L0.822021 13.132L2.86796 15.178L7.23492 10.8282L6.54721 10.1405L7.54439 9.14331C8.35245 9.79664 9.36682 10.1921 10.4843 10.1921C11.7222 10.1921 12.9257 9.69348 13.7854 8.81665C14.6622 7.93982 15.1436 6.75352 15.1436 5.51564C15.1608 2.91954 13.0633 0.822024 10.4843 0.839216ZM2.88515 13.7854L2.21463 13.1148L5.17179 10.1405L5.8423 10.811L2.88515 13.7854ZM10.4843 9.21208C8.43841 9.21208 6.7879 7.54439 6.7879 5.51564C6.7879 3.46971 8.4556 1.8192 10.4843 1.8192C11.4643 1.8192 12.4099 2.21464 13.0976 2.90235C13.7854 3.59006 14.1808 4.53566 14.1808 5.51564C14.198 7.54439 12.5303 9.21208 10.4843 9.21208Z" fill="#989FA6"/>
</g>
<defs>
<clipPath id="clip0_45_383">
<rect width="16" height="16" fill="white"/>
</clipPath>
</defs>
</svg>
