<svg width="13" height="12" viewBox="0 0 13 12" fill="none" xmlns="http://www.w3.org/2000/svg">
<path fill-rule="evenodd" clip-rule="evenodd" d="M0.893682 5.23543C4.38334 3.68307 6.71032 2.65967 7.87463 2.16521C11.199 0.753426 11.8897 0.508184 12.34 0.500086C12.439 0.498305 12.6604 0.523363 12.8038 0.642186C12.9249 0.742518 12.9583 0.878053 12.9742 0.973179C12.9901 1.06831 13.01 1.285 12.9942 1.45433C12.8141 3.38695 12.0346 8.07691 11.638 10.2415C11.4702 11.1574 11.1398 11.4645 10.8199 11.4945C10.1248 11.5599 9.59692 11.0255 8.92364 10.5749C7.87007 9.86971 7.27488 9.43076 6.25221 8.74267C5.07035 7.94746 5.8365 7.5104 6.51004 6.79612C6.68631 6.60919 9.74916 3.76471 9.80845 3.50668C9.81586 3.4744 9.82274 3.35411 9.75275 3.29059C9.68275 3.22707 9.57945 3.24879 9.5049 3.26606C9.39923 3.29055 7.71615 4.4264 4.45566 6.6736C3.97793 7.00854 3.54521 7.17174 3.1575 7.16319C2.7301 7.15376 1.90793 6.91644 1.29673 6.71359C0.547079 6.46478 -0.0487324 6.33324 0.00314937 5.91069C0.0301726 5.6906 0.327017 5.46551 0.893682 5.23543Z" fill="white"/>
</svg>
